<?xml version="1.0" encoding="UTF-8" standalone="no"?>
<!-- Created with Inkscape (http://www.inkscape.org/) -->

<svg
   xmlns:dc="http://purl.org/dc/elements/1.1/"
   xmlns:cc="http://creativecommons.org/ns#"
   xmlns:rdf="http://www.w3.org/1999/02/22-rdf-syntax-ns#"
   xmlns:svg="http://www.w3.org/2000/svg"
   xmlns="http://www.w3.org/2000/svg"
   xmlns:sodipodi="http://sodipodi.sourceforge.net/DTD/sodipodi-0.dtd"
   xmlns:inkscape="http://www.inkscape.org/namespaces/inkscape"
   width="1052.3622"
   height="744.09448"
   id="svg2"
   version="1.1"
   inkscape:version="0.48.2 r9819"
   sodipodi:docname="socio.svg">
  <defs
     id="defs4">
    <filter
       inkscape:collect="always"
       id="filter3846">
      <feGaussianBlur
         inkscape:collect="always"
         stdDeviation="0.89705979"
         id="feGaussianBlur3848" />
    </filter>
    <filter
       inkscape:collect="always"
       id="filter3873">
      <feGaussianBlur
         inkscape:collect="always"
         stdDeviation="0.71114026"
         id="feGaussianBlur3875" />
    </filter>
  </defs>
  <sodipodi:namedview
     id="base"
     pagecolor="#ffffff"
     bordercolor="#666666"
     borderopacity="1.0"
     inkscape:pageopacity="0.0"
     inkscape:pageshadow="2"
     inkscape:zoom="1.6554081"
     inkscape:cx="194.62563"
     inkscape:cy="349.66339"
     inkscape:document-units="px"
     inkscape:current-layer="layer1"
     showgrid="false"
     inkscape:window-width="1916"
     inkscape:window-height="1036"
     inkscape:window-x="4"
     inkscape:window-y="22"
     inkscape:window-maximized="0" />
  <metadata
     id="metadata7">
    <rdf:RDF>
      <cc:Work
         rdf:about="">
        <dc:format>image/svg+xml</dc:format>
        <dc:type
           rdf:resource="http://purl.org/dc/dcmitype/StillImage" />
        <dc:title></dc:title>
      </cc:Work>
    </rdf:RDF>
  </metadata>
  <g
     inkscape:label="Ebene 1"
     inkscape:groupmode="layer"
     id="layer1"
     transform="translate(0,-308.2677)">
    <path
       style="fill:none;stroke:#000000;stroke-width:0.55372238px;stroke-linecap:butt;stroke-linejoin:miter;stroke-opacity:1"
       d="m 12.462552,390.41076 66.898601,0.66899 0,0 0,-66.8986 66.564117,0 0,1.00347 0,64.89165 66.5641,0 0,66.8986 -66.22961,0 0,64.55715 -67.233098,0 0,-64.55715 -66.56411,0 z"
       id="path3799"
       inkscape:connector-curvature="0" />
    <path
       inkscape:connector-curvature="0"
       id="path3820"
       d="m 538.23586,546.74666 120.81614,1.20816 0,0 0,-120.81613 120.21205,0 0,1.81224 0,117.19165 120.21205,0 0,120.81613 -119.60797,0 0,116.58757 -121.42021,0 0,-116.58757 -120.21206,0 z"
       style="fill:#5a7baf;fill-opacity:0.94117647;stroke:#5a7baf;stroke-width:2;stroke-linecap:butt;stroke-linejoin:miter;stroke-miterlimit:4;stroke-opacity:0.94117647;stroke-dasharray:none;filter:url(#filter3846)"
       inkscape:export-filename="/Users/th/Workspace/socio/browser/chrome/images/add.png"
       inkscape:export-xdpi="3.7219596"
       inkscape:export-ydpi="3.7219596"
       transform="matrix(0.55372241,0,0,0.55372241,-45.404732,88.333866)" />
    <path
       inkscape:connector-curvature="0"
       id="path3869"
       d="m 130.27421,878.61878 70.73685,0.70757 0,0 0,-70.75711 70.38317,0 0,1.06135 0,68.6344 70.38316,0 0,70.75712 -70.02948,0 0,68.28059 -71.09053,0 0,-68.28059 -70.38317,0 z"
       style="fill:#000000;fill-opacity:1;stroke:#000000;stroke-width:0.58557558px;stroke-linecap:butt;stroke-linejoin:miter;stroke-opacity:1"
       inkscape:export-filename="/Users/th/Workspace/socio/browser/chrome/images/own.png"
       inkscape:export-xdpi="10.749477"
       inkscape:export-ydpi="10.749477" />
    <path
       style="fill:#6a6a6a;fill-opacity:1;stroke:#010101;stroke-width:0.79299998;stroke-linecap:butt;stroke-linejoin:miter;stroke-miterlimit:4;stroke-opacity:1;stroke-dasharray:none;filter:url(#filter3873)"
       d="m 582.83421,655.66023 95.77647,0.95777 0,0 0,-95.77646 95.29759,0 0,1.43664 0,92.90317 95.29758,0 0,95.77647 -94.8187,0 0,92.42429 -96.25535,0 0,-92.42429 -95.29759,0 z"
       id="path3871"
       inkscape:connector-curvature="0"
       transform="matrix(0.7385619,0,0,0.73877353,-76.361259,174.218)"
       inkscape:export-filename="/Users/th/Workspace/socio/browser/chrome/images/foreign.png"
       inkscape:export-xdpi="10.749477"
       inkscape:export-ydpi="10.749477" />
    <g
       id="g3888"
       transform="translate(-376.64429,25.371383)"
       inkscape:export-filename="/Users/th/Workspace/socio/browser/chrome/images/both.png"
       inkscape:export-xdpi="10.749477"
       inkscape:export-ydpi="10.749477">
      <path
         style="fill:#6a6a6a;fill-opacity:1;stroke:#010101;stroke-width:0.79299998;stroke-linecap:butt;stroke-linejoin:miter;stroke-miterlimit:4;stroke-opacity:1;stroke-dasharray:none;filter:url(#filter3873)"
         d="m 582.83421,655.66023 95.77647,0.95777 0,0 0,-95.77646 95.29759,0 0,1.43664 0,92.90317 95.29758,0 0,95.77647 -94.8187,0 0,92.42429 -96.25535,0 0,-92.42429 -95.29759,0 z"
         id="path3879"
         inkscape:connector-curvature="0"
         transform="matrix(0.7385619,0,0,0.73877353,300.28303,371.88336)" />
      <path
         style="fill:#000000;fill-opacity:1;stroke:#000000;stroke-width:0.58557558px;stroke-linecap:butt;stroke-linejoin:miter;stroke-opacity:1"
         d="m 800.86958,786.2197 0,70.75 -70.75,-0.6875 0,70.375 69.75,0 71.375,-70.78125 0,-68.59375 0,-1.0625 -70.375,0 z"
         id="use3884"
         inkscape:connector-curvature="0" />
    </g>
    <path
       style="fill:none;stroke:#010101;stroke-width:5;stroke-linecap:butt;stroke-linejoin:miter;stroke-miterlimit:4;stroke-opacity:0.94533759;stroke-dasharray:none;stroke-dashoffset:0"
       d="m 130.27421,658.60245 70.73685,0.70757 0,0 0,-70.75711 70.38317,0 0,1.06135 0,68.6344 70.38316,0 0,70.75712 -70.02948,0 0,68.28059 -71.09053,0 0,-68.28059 -70.38317,0 z"
       id="path3892"
       inkscape:connector-curvature="0"
       inkscape:export-filename="/Users/th/Workspace/socio/browser/chrome/images/none.png"
       inkscape:export-xdpi="10.39"
       inkscape:export-ydpi="10.39" />
  </g>
</svg>
