<?xml version="1.0" encoding="UTF-8" standalone="no"?>
<!-- Created with Inkscape (http://www.inkscape.org/) -->

<svg
   xmlns:dc="http://purl.org/dc/elements/1.1/"
   xmlns:cc="http://creativecommons.org/ns#"
   xmlns:rdf="http://www.w3.org/1999/02/22-rdf-syntax-ns#"
   xmlns:svg="http://www.w3.org/2000/svg"
   xmlns="http://www.w3.org/2000/svg"
   xmlns:xlink="http://www.w3.org/1999/xlink"
   xmlns:sodipodi="http://sodipodi.sourceforge.net/DTD/sodipodi-0.dtd"
   xmlns:inkscape="http://www.inkscape.org/namespaces/inkscape"
   width="1600px"
   height="1200px"
   id="svg4081"
   version="1.1"
   inkscape:version="0.48.2 r9819"
   inkscape:export-filename="/Users/th/Desktop/test.png"
   inkscape:export-xdpi="90"
   inkscape:export-ydpi="90"
   sodipodi:docname="socio.svg">
  <defs
     id="defs4083">
    <linearGradient
       inkscape:collect="always"
       id="linearGradient3818">
      <stop
         id="stop3822"
         offset="0"
         style="stop-color:#c6e9af;stop-opacity:1" />
      <stop
         id="stop3820"
         offset="1"
         style="stop-color:#59a12c;stop-opacity:1;" />
    </linearGradient>
    <linearGradient
       id="linearGradient3804">
      <stop
         id="stop3808"
         offset="0"
         style="stop-color:#c6e9af;stop-opacity:1" />
      <stop
         id="stop3806"
         offset="1"
         style="stop-color:#58a12c;stop-opacity:1;" />
    </linearGradient>
    <filter
       inkscape:collect="always"
       id="filter3908">
      <feGaussianBlur
         inkscape:collect="always"
         stdDeviation="1.1295398"
         id="feGaussianBlur3910" />
    </filter>
    <filter
       inkscape:collect="always"
       id="filter3912">
      <feGaussianBlur
         inkscape:collect="always"
         stdDeviation="0.92187501"
         id="feGaussianBlur3914" />
    </filter>
    <radialGradient
       inkscape:collect="always"
       xlink:href="#linearGradient3804"
       id="radialGradient3957"
       gradientUnits="userSpaceOnUse"
       gradientTransform="matrix(0.00868925,0.53216406,-1.3675454,0.02232952,1213.3556,213.34349)"
       cx="498.16425"
       cy="523.61609"
       fx="498.16425"
       fy="523.61609"
       r="94.922925" />
    <radialGradient
       inkscape:collect="always"
       xlink:href="#linearGradient3818"
       id="radialGradient3959"
       gradientUnits="userSpaceOnUse"
       gradientTransform="matrix(0.01233181,0.99992396,-1.3286815,0.01638631,947.04898,155.43618)"
       cx="278.91333"
       cy="503.97556"
       fx="278.91333"
       fy="503.97556"
       r="68.75" />
    <radialGradient
       inkscape:collect="always"
       xlink:href="#linearGradient3804"
       id="radialGradient4033"
       gradientUnits="userSpaceOnUse"
       gradientTransform="matrix(0.00868925,0.53216406,-1.3675454,0.02232952,1213.3556,213.34349)"
       cx="498.16425"
       cy="523.61609"
       fx="498.16425"
       fy="523.61609"
       r="94.922925" />
    <radialGradient
       inkscape:collect="always"
       xlink:href="#linearGradient3818"
       id="radialGradient4035"
       gradientUnits="userSpaceOnUse"
       gradientTransform="matrix(0.01233181,0.99992396,-1.3286815,0.01638631,947.04898,155.43618)"
       cx="278.91333"
       cy="503.97556"
       fx="278.91333"
       fy="503.97556"
       r="68.75" />
  </defs>
  <sodipodi:namedview
     id="base"
     pagecolor="#ffffff"
     bordercolor="#666666"
     borderopacity="1.0"
     inkscape:pageopacity="0.0"
     inkscape:pageshadow="2"
     inkscape:zoom="0.72"
     inkscape:cx="800"
     inkscape:cy="655.55555"
     inkscape:current-layer="layer1"
     inkscape:document-units="px"
     showgrid="false"
     inkscape:window-width="1916"
     inkscape:window-height="1036"
     inkscape:window-x="4"
     inkscape:window-y="22"
     inkscape:window-maximized="0" />
  <metadata
     id="metadata4086">
    <rdf:RDF>
      <cc:Work
         rdf:about="">
        <dc:format>image/svg+xml</dc:format>
        <dc:type
           rdf:resource="http://purl.org/dc/dcmitype/StillImage" />
        <dc:title></dc:title>
      </cc:Work>
    </rdf:RDF>
  </metadata>
  <g
     id="layer1"
     inkscape:label="Layer 1"
     inkscape:groupmode="layer">
    <path
       sodipodi:nodetypes="csccsccc"
       inkscape:connector-curvature="0"
       id="path4654"
       d="m 460.85932,312.05816 c 0,0 2.61195,-50.38105 21.95839,-67.87141 4.9174,-4.44564 20.34939,-12.35067 26.94895,-12.97542 26.18532,-2.17629 39.5778,-6.68588 60.88464,-1.99622 8.60528,2.07061 13.79507,3.74527 17.96596,8.98298 14.07493,17.67498 15.96975,65.87519 15.96975,65.87519 l 0,-1.99621 0.99811,0.9981"
       style="fill:#d4d4d4;fill-opacity:1;stroke:none"
       inkscape:export-filename="/Users/th/Workspace/socio/html/images/both.png"
       inkscape:export-xdpi="90"
       inkscape:export-ydpi="90" />
    <path
       transform="matrix(0.71863847,0,0,0.71863847,308.14864,-161.04172)"
       sodipodi:open="true"
       sodipodi:end="6.2235277"
       sodipodi:start="0"
       d="m 380.55554,475 a 68.75,54.166668 0 1 1 -0.1223,-3.22954"
       sodipodi:ry="54.166668"
       sodipodi:rx="68.75"
       sodipodi:cy="475"
       sodipodi:cx="311.80554"
       id="path4656"
       style="fill:#d4d4d4;fill-opacity:1;stroke:none"
       sodipodi:type="arc"
       inkscape:export-filename="/Users/th/Workspace/socio/html/images/both.png"
       inkscape:export-xdpi="90"
       inkscape:export-ydpi="90" />
    <g
       id="g3916"
       transform="translate(-151.38889,-218.05556)"
       inkscape:export-filename="/Users/th/Workspace/socio/html/images/both.png"
       inkscape:export-xdpi="90"
       inkscape:export-ydpi="90">
      <path
         sodipodi:nodetypes="csccsccc"
         inkscape:connector-curvature="0"
         id="path3800"
         d="m 463.6371,574.98975 c 0,0 3.42626,-66.08796 28.80419,-89.03116 6.45046,-5.83162 26.69356,-16.20114 35.35061,-17.02066 34.34891,-2.85478 51.91667,-8.77029 79.86617,-2.61857 11.28809,2.71615 18.09586,4.9129 23.56708,11.78353 18.46296,23.18537 20.94851,86.41259 20.94851,86.41259 l 0,-2.61855 1.30929,1.30927"
         style="fill:url(#radialGradient3957);fill-opacity:1;stroke:#338000;stroke-width:1;stroke-miterlimit:4;stroke-opacity:1;stroke-dasharray:none;filter:url(#filter3908)" />
      <path
         transform="matrix(0.94268282,0,0,0.94268282,263.31699,-45.60483)"
         sodipodi:open="true"
         sodipodi:end="6.2235277"
         sodipodi:start="0"
         d="m 380.55554,475 c 0,29.91542 -30.78042,54.16667 -68.75,54.16667 -37.96957,0 -68.75,-24.25125 -68.75,-54.16667 0,-29.91542 30.78043,-54.16667 68.75,-54.16667 36.37758,0 66.45878,22.327 68.6277,50.93713"
         sodipodi:ry="54.166668"
         sodipodi:rx="68.75"
         sodipodi:cy="475"
         sodipodi:cx="311.80554"
         id="path3802"
         style="fill:url(#radialGradient3959);fill-opacity:1;stroke:#338000;stroke-width:1.06080222;stroke-miterlimit:4;stroke-dasharray:none;filter:url(#filter3912)"
         sodipodi:type="arc" />
    </g>
    <g
       id="g3947"
       transform="matrix(0.75232233,0,0,0.7762576,254.31507,77.979114)" />
    <path
       style="fill:#d4d4d4;fill-opacity:1;stroke:none"
       d="m 453.91487,724.55816 c 0,0 2.61195,-50.38105 21.95839,-67.87141 4.9174,-4.44564 20.34939,-12.35067 26.94895,-12.97542 26.18532,-2.17629 39.5778,-6.68588 60.88464,-1.99622 8.60528,2.07061 13.79507,3.74527 17.96596,8.98298 14.07493,17.67498 15.96975,65.87519 15.96975,65.87519 l 0,-1.99621 0.99811,0.9981"
       id="path3999"
       inkscape:connector-curvature="0"
       sodipodi:nodetypes="csccsccc"
       inkscape:export-filename="/Users/th/Workspace/socio/html/images/foreign.png"
       inkscape:export-xdpi="90"
       inkscape:export-ydpi="90" />
    <path
       sodipodi:type="arc"
       style="fill:#d4d4d4;fill-opacity:1;stroke:none"
       id="path4001"
       sodipodi:cx="311.80554"
       sodipodi:cy="475"
       sodipodi:rx="68.75"
       sodipodi:ry="54.166668"
       d="m 380.55554,475 a 68.75,54.166668 0 1 1 -0.1223,-3.22954"
       sodipodi:start="0"
       sodipodi:end="6.2235277"
       sodipodi:open="true"
       transform="matrix(0.71863847,0,0,0.71863847,301.20419,251.45828)"
       inkscape:export-filename="/Users/th/Workspace/socio/html/images/foreign.png"
       inkscape:export-xdpi="90"
       inkscape:export-ydpi="90" />
    <g
       transform="translate(-158.33334,194.44444)"
       id="g4003"
       style="fill:none;stroke:#338000;stroke-width:7;stroke-miterlimit:4;stroke-opacity:1;stroke-dasharray:14, 14;stroke-dashoffset:0"
       inkscape:export-filename="/Users/th/Workspace/socio/html/images/foreign.png"
       inkscape:export-xdpi="90"
       inkscape:export-ydpi="90">
      <path
         style="fill:none;stroke:#338000;stroke-width:7;stroke-miterlimit:4;stroke-opacity:1;stroke-dasharray:14, 14;stroke-dashoffset:0;filter:url(#filter3908)"
         d="m 463.6371,574.98975 c 0,0 3.42626,-66.08796 28.80419,-89.03116 6.45046,-5.83162 26.69356,-16.20114 35.35061,-17.02066 34.34891,-2.85478 51.91667,-8.77029 79.86617,-2.61857 11.28809,2.71615 18.09586,4.9129 23.56708,11.78353 18.46296,23.18537 20.94851,86.41259 20.94851,86.41259 l 0,-2.61855 1.30929,1.30927"
         id="path4005"
         inkscape:connector-curvature="0"
         sodipodi:nodetypes="csccsccc" />
      <path
         sodipodi:type="arc"
         style="fill:none;stroke:#338000;stroke-width:7.42561531;stroke-miterlimit:4;stroke-opacity:1;stroke-dasharray:14.85123066, 14.85123066;stroke-dashoffset:0;filter:url(#filter3912)"
         id="path4007"
         sodipodi:cx="311.80554"
         sodipodi:cy="475"
         sodipodi:rx="68.75"
         sodipodi:ry="54.166668"
         d="m 380.55554,475 c 0,29.91542 -30.78042,54.16667 -68.75,54.16667 -37.96957,0 -68.75,-24.25125 -68.75,-54.16667 0,-29.91542 30.78043,-54.16667 68.75,-54.16667 36.37758,0 66.45878,22.327 68.6277,50.93713"
         sodipodi:start="0"
         sodipodi:end="6.2235277"
         sodipodi:open="true"
         transform="matrix(0.94268282,0,0,0.94268282,263.31699,-45.60483)" />
    </g>
    <path
       sodipodi:nodetypes="csccsccc"
       inkscape:connector-curvature="0"
       id="path4013"
       d="m 1083.0815,723.16927 c 0,0 2.612,-50.38105 21.9584,-67.87141 4.9174,-4.44564 20.3494,-12.35067 26.949,-12.97542 26.1853,-2.17629 39.5778,-6.68588 60.8846,-1.99622 8.6053,2.07061 13.7951,3.74527 17.966,8.98298 14.0749,17.67498 15.9697,65.87519 15.9697,65.87519 l 0,-1.99621 0.9981,0.9981"
       style="fill:none;fill-opacity:1;stroke:#d4d4d4;stroke-opacity:1;stroke-width:7;stroke-miterlimit:4;stroke-dasharray:21,7;stroke-dashoffset:0"
       inkscape:export-filename="/Users/th/Workspace/socio/html/images/none.png"
       inkscape:export-xdpi="90"
       inkscape:export-ydpi="90" />
    <path
       transform="matrix(0.71863847,0,0,0.71863847,930.37086,250.06939)"
       sodipodi:open="true"
       sodipodi:end="6.2235277"
       sodipodi:start="0"
       d="m 380.55554,475 a 68.75,54.166668 0 1 1 -0.1223,-3.22954"
       sodipodi:ry="54.166668"
       sodipodi:rx="68.75"
       sodipodi:cy="475"
       sodipodi:cx="311.80554"
       id="path4015"
       style="fill:none;fill-opacity:1;stroke:#d4d4d4;stroke-opacity:1;stroke-width:9.74064191;stroke-miterlimit:4;stroke-dasharray:29.22192573,9.74064191;stroke-dashoffset:0"
       sodipodi:type="arc"
       inkscape:export-filename="/Users/th/Workspace/socio/html/images/none.png"
       inkscape:export-xdpi="90"
       inkscape:export-ydpi="90" />
    <g
       style="fill:none;stroke:#338000;stroke-width:7;stroke-miterlimit:4;stroke-opacity:1;stroke-dasharray:14, 14;stroke-dashoffset:0"
       id="g4017"
       transform="translate(470.83333,193.05555)"
       inkscape:export-filename="/Users/th/Workspace/socio/html/images/none.png"
       inkscape:export-xdpi="90"
       inkscape:export-ydpi="90">
      <path
         sodipodi:nodetypes="csccsccc"
         inkscape:connector-curvature="0"
         id="path4019"
         d="m 463.6371,574.98975 c 0,0 3.42626,-66.08796 28.80419,-89.03116 6.45046,-5.83162 26.69356,-16.20114 35.35061,-17.02066 34.34891,-2.85478 51.91667,-8.77029 79.86617,-2.61857 11.28809,2.71615 18.09586,4.9129 23.56708,11.78353 18.46296,23.18537 20.94851,86.41259 20.94851,86.41259 l 0,-2.61855 1.30929,1.30927"
         style="fill:none;stroke:#338000;stroke-width:7;stroke-miterlimit:4;stroke-opacity:1;stroke-dasharray:14, 14;stroke-dashoffset:0;filter:url(#filter3908)" />
      <path
         transform="matrix(0.94268282,0,0,0.94268282,263.31699,-45.60483)"
         sodipodi:open="true"
         sodipodi:end="6.2235277"
         sodipodi:start="0"
         d="m 380.55554,475 c 0,29.91542 -30.78042,54.16667 -68.75,54.16667 -37.96957,0 -68.75,-24.25125 -68.75,-54.16667 0,-29.91542 30.78043,-54.16667 68.75,-54.16667 36.37758,0 66.45878,22.327 68.6277,50.93713"
         sodipodi:ry="54.166668"
         sodipodi:rx="68.75"
         sodipodi:cy="475"
         sodipodi:cx="311.80554"
         id="path4021"
         style="fill:none;stroke:#338000;stroke-width:7.42561531;stroke-miterlimit:4;stroke-opacity:1;stroke-dasharray:14.85123066, 14.85123066;stroke-dashoffset:0;filter:url(#filter3912)"
         sodipodi:type="arc" />
    </g>
    <path
       style="fill:none;fill-opacity:1;stroke:#d4d4d4;stroke-width:7;stroke-miterlimit:4;stroke-dasharray:28, 7;stroke-opacity:1;stroke-dashoffset:0"
       d="m 1071.9705,316.22482 c 0,0 2.6119,-50.38105 21.9583,-67.87141 4.9174,-4.44564 20.3494,-12.35067 26.949,-12.97542 26.1853,-2.17629 39.5778,-6.68588 60.8846,-1.99622 8.6053,2.07061 13.7951,3.74527 17.966,8.98298 14.0749,17.67498 15.9697,65.87519 15.9697,65.87519 l 0,-1.99621 0.9982,0.9981"
       id="path4023"
       inkscape:connector-curvature="0"
       sodipodi:nodetypes="csccsccc"
       inkscape:export-filename="/Users/th/Workspace/socio/html/images/own.png"
       inkscape:export-xdpi="90"
       inkscape:export-ydpi="90" />
    <path
       sodipodi:type="arc"
       style="fill:none;fill-opacity:1;stroke:#d4d4d4;stroke-width:9.74064191000000079;stroke-miterlimit:4;stroke-dasharray:38.96256764999999689, 9.74064191000000079;stroke-opacity:1;stroke-dashoffset:0"
       id="path4025"
       sodipodi:cx="311.80554"
       sodipodi:cy="475"
       sodipodi:rx="68.75"
       sodipodi:ry="54.166668"
       d="m 380.55554,475 a 68.75,54.166668 0 1 1 -0.1223,-3.22954"
       sodipodi:start="0"
       sodipodi:end="6.2235277"
       sodipodi:open="true"
       transform="matrix(0.71863847,0,0,0.71863847,919.25975,-156.87506)"
       inkscape:export-filename="/Users/th/Workspace/socio/html/images/own.png"
       inkscape:export-xdpi="90"
       inkscape:export-ydpi="90" />
    <g
       transform="translate(459.72222,-213.8889)"
       id="g4027"
       inkscape:export-filename="/Users/th/Workspace/socio/html/images/own.png"
       inkscape:export-xdpi="90"
       inkscape:export-ydpi="90">
      <path
         style="fill:url(#radialGradient4033);fill-opacity:1;stroke:#338000;stroke-width:1;stroke-miterlimit:4;stroke-opacity:1;stroke-dasharray:none;filter:url(#filter3908)"
         d="m 463.6371,574.98975 c 0,0 3.42626,-66.08796 28.80419,-89.03116 6.45046,-5.83162 26.69356,-16.20114 35.35061,-17.02066 34.34891,-2.85478 51.91667,-8.77029 79.86617,-2.61857 11.28809,2.71615 18.09586,4.9129 23.56708,11.78353 18.46296,23.18537 20.94851,86.41259 20.94851,86.41259 l 0,-2.61855 1.30929,1.30927"
         id="path4029"
         inkscape:connector-curvature="0"
         sodipodi:nodetypes="csccsccc" />
      <path
         sodipodi:type="arc"
         style="fill:url(#radialGradient4035);fill-opacity:1;stroke:#338000;stroke-width:1.06080222;stroke-miterlimit:4;stroke-dasharray:none;filter:url(#filter3912)"
         id="path4031"
         sodipodi:cx="311.80554"
         sodipodi:cy="475"
         sodipodi:rx="68.75"
         sodipodi:ry="54.166668"
         d="m 380.55554,475 c 0,29.91542 -30.78042,54.16667 -68.75,54.16667 -37.96957,0 -68.75,-24.25125 -68.75,-54.16667 0,-29.91542 30.78043,-54.16667 68.75,-54.16667 36.37758,0 66.45878,22.327 68.6277,50.93713"
         sodipodi:start="0"
         sodipodi:end="6.2235277"
         sodipodi:open="true"
         transform="matrix(0.94268282,0,0,0.94268282,263.31699,-45.60483)" />
    </g>
  </g>
</svg>
